<svg xmlns="http://www.w3.org/2000/svg" width="1000pt" height="1000pt" viewBox="0 0 1000 1000">
  <clipPath id="a">
    <path transform="matrix(1 0 0 -1 0 1000)" d="M0 1000h1000V0H0z"/>
  </clipPath>
  <g clip-path="url(#a)">
    <path d="m578.18 536.39-6.64 2.91a24.065 24.065 0 0 1-11.75 1.94l-48.89-4.28c-1.9 4.14-6.07 7.03-10.91 7.03-6.62 0-12-5.38-12-12 0-4.84 2.89-9.01 7.03-10.91l-5.6-63.92c-.42-4.85.39-9.76 2.35-14.21l3.64-8.29a5.011 5.011 0 0 1 9.16 0l3.64 8.29c1.96 4.45 2.77 9.36 2.34 14.21l-5.59 63.92a12.09 12.09 0 0 1 5.94 5.94l48.89-4.28c4-.35 8.07.32 11.75 1.94l6.63 2.92c1.75.77 2.87 2.49 2.87 4.39 0 1.9-1.12 3.63-2.86 4.4m36.54-4.4c0-4.14 3.36-7.5 7.5-7.5h49.85c-1.07-24.84-7.5-49.48-19.28-72.07l-43.19 24.95c-1.18.68-2.47 1-3.74 1-2.59 0-5.12-1.34-6.5-3.75-2.08-3.59-.85-8.17 2.74-10.25l43.19-24.93a173.147 173.147 0 0 0-23.5-29.22l-27.16-27.16-27.02 46.82a7.492 7.492 0 0 1-6.51 3.75 7.47 7.47 0 0 1-3.74-1c-3.59-2.08-4.82-6.66-2.75-10.25l28.04-48.56c.34-.58.74-1.1 1.19-1.55l-76.35-76.35v113.84c0 4.14-3.36 7.5-7.5 7.5-4.14 0-7.5-3.36-7.5-7.5V295.94l-76.35 76.35c.45.45.85.97 1.19 1.55l28.03 48.54c2.08 3.58.85 8.17-2.74 10.24a7.381 7.381 0 0 1-3.74 1.01c-2.59 0-5.11-1.34-6.5-3.75l-27.03-46.8-27.14 27.14c-9.05 9.05-16.89 18.86-23.5 29.23l43.17 24.93c3.59 2.08 4.82 6.66 2.74 10.25-1.38 2.41-3.91 3.75-6.5 3.75-1.27 0-2.56-.32-3.74-1.01l-43.19-24.92c-11.77 22.58-18.19 47.21-19.26 72.04h49.82c4.14 0 7.5 3.36 7.5 7.5 0 4.14-3.36 7.5-7.5 7.5h-49.82c1.06 24.83 7.48 49.48 19.25 72.06l43.2-24.93a7.481 7.481 0 0 1 10.24 2.74c2.08 3.59.85 8.17-2.74 10.25l-43.19 24.93c6.62 10.38 14.46 20.2 23.52 29.26 9.05 9.05 18.86 16.89 29.23 23.5l24.93-43.2a7.505 7.505 0 0 1 13 7.5l-24.94 43.21c22.58 11.78 47.23 18.2 72.06 19.27v-49.85c0-4.14 3.36-7.5 7.5-7.5 4.14 0 7.5 3.36 7.5 7.5v49.85c24.84-1.07 49.49-7.49 72.08-19.27l-24.96-43.21a7.505 7.505 0 0 1 13-7.5l24.94 43.21a172.85 172.85 0 0 0 29.24-23.51c9.06-9.06 16.9-18.88 23.52-29.25l-43.21-24.94a7.505 7.505 0 0 1 7.5-13l43.21 24.95c11.77-22.59 18.2-47.23 19.26-72.07h-49.85c-4.14 0-7.5-3.36-7.5-7.5"
      fill="#f6a9c3"/>
  </g>
</svg>
